<svg width="40" xmlns="http://www.w3.org/2000/svg" height="40" id="screenshot-e7a3b524-92e6-4dc3-9339-c4e2a9867c4e" viewBox="0 0 40 40" xmlns:xlink="http://www.w3.org/1999/xlink" fill="none" version="1.1"><g id="shape-e7a3b524-92e6-4dc3-9339-c4e2a9867c4e"><g class="frame-container-wrapper" opacity="1"><g class="frame-container-blur"><g class="frame-container-shadows"><g fill="none"><g class="fills" id="fills-e7a3b524-92e6-4dc3-9339-c4e2a9867c4e"><rect width="40" height="40" class="frame-background" x="0" transform="matrix(1.000000, 0.000000, 0.000000, 1.000000, 0.000000, 0.000000)" style="fill: rgb(255, 255, 255); fill-opacity: 0;" ry="0" rx="0" y="0"/></g><g class="frame-children"><g id="shape-76527339-c931-4410-98f3-7b07bd640ea0" rx="0" ry="0" style="opacity: 1;"><g id="shape-2ab787be-32a9-4269-a594-e760b002038a" rx="0" ry="0" style="opacity: 1;"><g id="shape-9b716664-e368-4de9-9ab4-408b256651b6" style="opacity: 1;"><g class="fills" id="fills-9b716664-e368-4de9-9ab4-408b256651b6"><path d="M0,0L40,0L40,40L0,40L0,0Z" fill-rule="evenodd"/></g></g><g id="shape-3b86f8b2-1451-4ad2-8eb0-848aa9386839" style="opacity: 1;"><g class="fills" id="fills-3b86f8b2-1451-4ad2-8eb0-848aa9386839"><path d="M33.333251953125,17.5L33.333251953125,8.333333015441895C33.333251953125,6.491666793823242,31.841552734375,5,30,5L8.333251953125,5C6.49169921875,5,5,6.491666793823242,5,8.333333015441895L5,25" fill-rule="evenodd"/></g><g fill-rule="evenodd" id="strokes-6217a663-3f33-8088-8007-389e7cd74f8a-3b86f8b2-1451-4ad2-8eb0-848aa9386839" class="strokes"><g class="stroke-shape"><path d="M33.333251953125,17.5L33.333251953125,8.333333015441895C33.333251953125,6.491666793823242,31.841552734375,5,30,5L8.333251953125,5C6.49169921875,5,5,6.491666793823242,5,8.333333015441895L5,25" style="fill: none; stroke-width: 2.5; stroke: rgb(246, 122, 203); stroke-opacity: 1;"/></g></g></g><g id="shape-08775f3a-1d4b-4ed0-b581-3a53f8997334" style="opacity: 1;"><g class="fills" id="fills-08775f3a-1d4b-4ed0-b581-3a53f8997334"><path d="M25,30L5,30C4.079833984375,30,3.333251953125,29.253334045410156,3.333251953125,28.33333396911621L3.333251953125,26.66666603088379C3.333251953125,25.746665954589844,4.079833984375,25,5,25L25,25" fill-rule="evenodd"/></g><g fill-rule="evenodd" id="strokes-6217a663-3f33-8088-8007-389e7cd7d64b-08775f3a-1d4b-4ed0-b581-3a53f8997334" class="strokes"><g class="stroke-shape"><path d="M25,30L5,30C4.079833984375,30,3.333251953125,29.253334045410156,3.333251953125,28.33333396911621L3.333251953125,26.66666603088379C3.333251953125,25.746665954589844,4.079833984375,25,5,25L25,25" style="fill: none; stroke-width: 2.5; stroke: rgb(246, 122, 203); stroke-opacity: 1;"/></g></g></g><g id="shape-298b1716-9b7e-412e-a8c3-b6c936fe532e" style="opacity: 1;"><g class="fills" id="fills-298b1716-9b7e-412e-a8c3-b6c936fe532e"><path d="M35,35L26.666748046875,35C25.74658203125,35,25,34.253334045410156,25,33.33333206176758L25,19.16666603088379C25,18.246665954589844,25.74658203125,17.5,26.666748046875,17.5L35,17.5C35.919921875,17.5,36.666748046875,18.246665954589844,36.666748046875,19.16666603088379L36.666748046875,33.33333206176758C36.666748046875,34.253334045410156,35.919921875,35,35,35Z" fill-rule="evenodd"/></g><g fill-rule="evenodd" id="strokes-6217a663-3f33-8088-8007-389e7cd8693d-298b1716-9b7e-412e-a8c3-b6c936fe532e" class="strokes"><g class="stroke-shape"><path d="M35,35L26.666748046875,35C25.74658203125,35,25,34.253334045410156,25,33.33333206176758L25,19.16666603088379C25,18.246665954589844,25.74658203125,17.5,26.666748046875,17.5L35,17.5C35.919921875,17.5,36.666748046875,18.246665954589844,36.666748046875,19.16666603088379L36.666748046875,33.33333206176758C36.666748046875,34.253334045410156,35.919921875,35,35,35Z" style="fill: none; stroke-width: 2.5; stroke: rgb(246, 122, 203); stroke-opacity: 1;"/></g></g></g><g id="shape-be1a329e-7671-4da4-8f15-fa5a12cd1ca2" style="opacity: 1;"><g class="fills" id="fills-be1a329e-7671-4da4-8f15-fa5a12cd1ca2"><path d="M25,30L36.666748046875,30" fill-rule="evenodd"/></g><g fill-rule="evenodd" id="strokes-6217a663-3f33-8088-8007-389e7cd8bde1-be1a329e-7671-4da4-8f15-fa5a12cd1ca2" class="strokes"><g class="stroke-shape"><path d="M25,30L36.666748046875,30" style="fill: none; stroke-width: 2.5; stroke: rgb(246, 122, 203); stroke-opacity: 1;"/></g></g></g></g></g></g></g></g></g></g></g></svg>